<svg xmlns="http://www.w3.org/2000/svg" viewBox="0 0 200 200">
  <!-- Background circle -->
  <circle cx="100" cy="100" r="90" fill="#4F46E5" />
  
  <!-- Microphone icon -->
  <path d="M100 50 L100 110 M80 110 L120 110 M100 50 C88 50 78 60 78 72 L78 88 C78 100 88 110 100 110 C112 110 122 100 122 88 L122 72 C122 60 112 50 100 50" 
        fill="none" stroke="white" stroke-width="8" stroke-linecap="round" stroke-linejoin="round"/>
  
  <!-- Sound waves -->
  <path d="M70 80 Q65 80 65 85 L65 95 Q65 100 70 100" 
        fill="none" stroke="white" stroke-width="4" stroke-linecap="round"/>
  <path d="M130 80 Q135 80 135 85 L135 95 Q135 100 130 100" 
        fill="none" stroke="white" stroke-width="4" stroke-linecap="round"/>
  
  <!-- Checkmark -->
  <path d="M70 140 L90 160 L130 120" 
        fill="none" stroke="white" stroke-width="8" stroke-linecap="round" stroke-linejoin="round"/>
</svg>